<svg id="Réteg_1" data-name="Réteg 1" xmlns="http://www.w3.org/2000/svg" viewBox="0 0 3000 320"><defs><style>.cls-1{fill:#09f;}</style></defs><path class="cls-1" d="M2958.33,181.3c-41.66-10.3-125-32.3-208.33-16-83.33,15.7-166.67,69.7-250,64C2416.67,224,2333.33,160,2250,112s-166.67-80-250-53.3C1916.67,85,1828.49,157,1750,192c-202.33,90.2-201.08-30.16-462-32-149.65-1.06-204.68,75-288,69.3C916.67,224,833.33,160,750,112S583.33,32,500,58.7C416.67,85,333.33,171,250,192S83.33,171,41.67,149.3L0,128V320H3000V192Z"/></svg>