<?xml version="1.0" standalone="no"?><svg xmlns="http://www.w3.org/2000/svg" viewBox="0 0 1440 320"><path fill="#0099ff" fill-opacity="1" d="M0,128L40,149.3C80,171,160,213,240,192C320,171,400,85,480,58.7C560,32,640,64,720,112C800,160,880,224,960,229.3C1040,235,1120,181,1200,165.3C1280,149,1360,171,1400,181.3L1440,192L1440,320L1400,320C1360,320,1280,320,1200,320C1120,320,1040,320,960,320C880,320,800,320,720,320C640,320,560,320,480,320C400,320,320,320,240,320C160,320,80,320,40,320L0,320Z"></path></svg>